# xmcd CD database file
#
# Track frame offsets:
#	150
#	10912
#	25122
#	37120
#	48200
#	58997
#	69200
#	80880
#	92780
#	105217
#	120452
#	132027
#	145472
#
# Disc length: 2152 seconds
#
# Revision: 0
# Processed by: cddbd v1.4PL0 Copyright (c) Steve Scherf et al.
# Submitted via: CDex 1.40Beta9
#
DISCID=aa08660d
DTITLE=Tom Astor - Eine kleine Dosis Freiheit
DYEAR=1900
DGENRE=Country
TTITLE0=Wenn ein zartes Wesen mit Gefühl
TTITLE1=International Airport (Frankfurt am Main)
TTITLE2=Freunde
TTITLE3=Ja, dassind Stunden (die vergisst man nie)
TTITLE4=Irgendwo (im Duett mit RATTLESNAKE ANNIE)
TTITLE5=Die Liebe hat es schwer, im dichten Stadtverkehr
TTITLE6=Ja, dann ist Sommer
TTITLE7=Ich brauch' eine kleine Dosis Freiheit
TTITLE8=Ich bin dafür, daß wir dagegen sind
TTITLE9=Du, das mag ich#
TTITLE10=Blue Jeans, Rock 'n' Roll und Elvis
TTITLE11=Denn der Sieger, der heißt Heimweh
TTITLE12=Hallo, guten Morgen Deutschland (Länder- und Städte-Medley)
EXTD=ID3G: 2
EXTT0=
EXTT1=
EXTT2=
EXTT3=
EXTT4=
EXTT5=
EXTT6=
EXTT7=
EXTT8=
EXTT9=
EXTT10=
EXTT11=
EXTT12=
PLAYORDER=
